<mxfile host="app.diagrams.net" modified="2024-05-29T21:05:52.824Z" agent="Mozilla/5.0 (Windows NT 10.0; Win64; x64) AppleWebKit/537.36 (KHTML, like Gecko) Chrome/125.0.0.0 Safari/537.36" version="24.4.4" etag="ktWr_6MVhjxg3mJlHxv3" type="github">
  <diagram name="Page-1" id="1Ke_1_7fw4b3JSTPyPBs">
    <mxGraphModel>
      <root>
        <mxCell id="0" />
        <mxCell id="1" parent="0" />
      </root>
    </mxGraphModel>
  </diagram>
</mxfile>
